HIERARCHY
ROOT Hips
{
	OFFSET 0.00000 0.00000 0.00000
	CHANNELS 6 Xposition Yposition Zposition Zrotation Yrotation Xrotation 
	JOINT LHipJoint
	{
		OFFSET 0 0 0
		CHANNELS 3 Zrotation Yrotation Xrotation
		JOINT LeftHip
		{
			OFFSET 1.57358 -1.76629 0.73362
			CHANNELS 3 Zrotation Yrotation Xrotation
			JOINT LeftKnee
			{
				OFFSET 2.40600 -6.61045 0.00000
				CHANNELS 3 Zrotation Yrotation Xrotation
				JOINT LeftAnkle
				{
					OFFSET 2.66168 -7.31291 0.00000
					CHANNELS 3 Zrotation Yrotation Xrotation
					JOINT LeftToe
					{
						OFFSET 0.20870 -0.57341 2.12506
						CHANNELS 3 Zrotation Yrotation Xrotation
						End Site
						{
							OFFSET 0.00000 -0.00000 1.10557
						}
					}
				}
			}
		}
	}
	JOINT RHipJoint
	{
		OFFSET 0 0 0
		CHANNELS 3 Zrotation Yrotation Xrotation
		JOINT RightHip
		{
			OFFSET -1.49299 -1.76629 0.73362
			CHANNELS 3 Zrotation Yrotation Xrotation
			JOINT RightKnee
			{
				OFFSET -2.43663 -6.69460 0.00000
				CHANNELS 3 Zrotation Yrotation Xrotation
				JOINT RightAnkle
				{
					OFFSET -2.62959 -7.22474 0.00000
					CHANNELS 3 Zrotation Yrotation Xrotation
					JOINT RightToe
					{
						OFFSET -0.25784 -0.70841 2.21862
						CHANNELS 3 Zrotation Yrotation Xrotation
						End Site
						{
							OFFSET -0.00000 -0.00000 1.16452
						}
					}
				}
			}
		}
	}
	JOINT lowerback
	{
		OFFSET 0 0 0
		CHANNELS 3 Zrotation Yrotation Xrotation
		JOINT Chest
		{
			OFFSET -0.00034 2.12399 -0.25450
			CHANNELS 3 Zrotation Yrotation Xrotation
			JOINT Chest2
			{
				OFFSET 0.05594 2.14379 -0.03318
				CHANNELS 3 Zrotation Yrotation Xrotation
				JOINT lowerneck
				{
					OFFSET 0 0 0
					CHANNELS 3 Zrotation Yrotation Xrotation
					JOINT Neck
					{
						OFFSET -0.09835 1.62725 0.24211
						CHANNELS 3 Zrotation Yrotation Xrotation
						JOINT Head
						{
							OFFSET 0.10849 1.66041 -0.22648
							CHANNELS 3 Zrotation Yrotation Xrotation
							End Site
							{
								OFFSET 0.04385 1.68267 -0.10541
							}
						}
					}
				}
				JOINT LeftCollar
				{
					OFFSET 0 0 0
					CHANNELS 3 Zrotation Yrotation Xrotation
					JOINT LeftShoulder
					{
						OFFSET 3.29108 0.79398 -0.68179
CHANNELS 3 Zrotation Xrotation Yrotation
						JOINT LeftElbow
						{
OFFSET 0 -5.153100 -0.000000
CHANNELS 3 Zrotation Xrotation Yrotation
							JOINT LeftWrist
							{
OFFSET 0 -3.751380 -0.000000
CHANNELS 3 Zrotation Xrotation Yrotation
								JOINT lhand
								{
									OFFSET 0 0 0
CHANNELS 3 Zrotation Xrotation Yrotation
									JOINT LFingers
									{
OFFSET 0 -0.529170 0.000000
CHANNELS 3 Zrotation Xrotation Yrotation
										End Site
										{
OFFSET 0 -0.426630 0.000000
										}
									}
								}
								JOINT LThumb
								{
OFFSET 0 0.000000 0.000000
CHANNELS 3 Zrotation Xrotation Yrotation
									End Site
									{
OFFSET 0 -0.433150 0.433150
									}
								}
							}
						}
					}
				}
				JOINT RightCollar
				{
					OFFSET 0 0 0
					CHANNELS 3 Zrotation Yrotation Xrotation
					JOINT RightShoulder
					{
						OFFSET -3.07414 1.06285 -0.44338
CHANNELS 3 Zrotation Xrotation Yrotation
						JOINT RightElbow
						{
OFFSET 0 -5.296130 0.000000
CHANNELS 3 Zrotation Xrotation Yrotation
							JOINT RightWrist
							{
OFFSET 0 -3.761440 -0.000000
CHANNELS 3 Zrotation Xrotation Yrotation
								JOINT rhand
								{
									OFFSET 0 0 0
CHANNELS 3 Zrotation Xrotation Yrotation
									JOINT RFingers
									{
OFFSET 0 -0.747320 0.000000
CHANNELS 3 Zrotation Xrotation Yrotation
										End Site
										{
OFFSET 0 -0.602510 0.000000
										}
									}
								}
								JOINT RThumb
								{
OFFSET 0 0.000000 0.000000
CHANNELS 3 Zrotation Xrotation Yrotation
									End Site
									{
OFFSET 0 -0.611710 0.611710
									}
								}
							}
						}
					}
				}
			}
		}
	}
}
MOTION
Frames: 4
Frame Time: 0.008333333333333333
-8.916200 17.514300 -32.750000 1.720400 -6.197500 -1.453600 0.000000 0.000000 0.000000 -24.032000 -7.594500 -16.528700 1.736400 8.294100 23.610900 -0.005400 -3.865200 -2.467400 0.040300 1.295200 3.561300 0.000000 0.000000 0.000000 20.801500 4.155700 -5.922400 -10.380300 -17.618200 60.751900 -1.177300 -5.730900 19.410000 -1.049200 -6.513700 18.282400 0.540000 -0.381500 7.033500 0.805200 -0.413600 -1.881000 0.585200 -0.207900 -5.906800 -10.842800 -0.356100 -7.814900 6.158500 -0.044800 20.178200 3.846500 -0.288800 7.473700 0.000000 0.000000 0.000000 -2.244900 10.203800 -8.959500 13.272800 -21.685600 2.553200 17.885700 17.067900 -22.930500 0.000000 0.000000 0.000000 -7.125000 0.000000 0.000000 -11.674900 53.568500 2.486400 0.000000 0.000000 0.000000 -2.377200 5.521100 14.840900 -17.319400 -27.276900 -4.232700 -13.767800 2.355300 -13.747500 0.000000 0.000000 0.000000 7.125000 0.000000 -0.000000 9.334400 15.964200 6.494900
-8.904276 17.529872 -32.583248 1.837767 -6.313888 -1.739320 0.000000 0.000000 0.000000 -24.407503 -7.435668 -15.507280 1.717447 8.250855 23.478584 0.006346 -3.627708 -2.825106 0.037453 1.248574 3.433077 0.000000 0.000000 0.000000 20.441925 4.269419 -6.760963 -10.856886 -17.863344 62.314595 -0.973176 -5.940630 17.593173 -0.945625 -6.192209 17.343644 -4.276754 -1.599036 7.166439 4.665312 -2.283549 -2.407682 7.674189 -0.857822 -6.176948 -14.571664 1.053636 -5.758623 3.853698 2.558536 19.856175 3.851394 0.481781 6.817460 0.000000 0.000000 0.000000 -9.535076 11.254050 -2.945854 13.557185 -22.098030 2.659355 18.826414 18.578007 -21.793315 0.000000 0.000000 0.000000 -7.125000 0.000000 0.000000 -10.278066 52.590058 1.940676 0.000000 0.000000 0.000000 -9.613632 6.419726 21.466117 -17.063756 -26.941617 -4.116312 -13.971390 0.810668 -13.484915 0.000000 0.000000 0.000000 7.125000 0.000000 0.000000 9.196923 16.214950 6.346212
-8.903112 17.540844 -32.438950 1.985539 -6.078116 -1.886577 0.000000 0.000000 0.000000 -24.759772 -7.376005 -14.840982 1.731394 8.282533 23.575637 0.020196 -3.673535 -3.397757 0.023612 0.982792 2.701497 0.000000 0.000000 0.000000 20.112834 4.215204 -7.886275 -11.333159 -18.092584 63.856787 -0.782930 -6.301062 15.764963 -0.994703 -6.346529 17.793491 -1.232549 -3.561666 3.478631 3.200065 -4.739782 -2.125028 4.308303 -2.266872 -3.842032 -16.599682 3.612707 0.693612 6.044803 4.661113 16.150935 4.717003 1.631497 4.238257 0.000000 0.000000 0.000000 -8.459872 12.503185 0.680089 13.988843 -22.717998 2.824294 18.177301 17.594381 -22.162380 0.000000 0.000000 0.000000 -7.125000 0.000000 0.000000 -11.067946 52.847879 2.161096 0.000000 0.000000 0.000000 -8.167293 6.859849 25.384527 -16.510292 -26.206227 -3.869414 -13.592828 1.637288 -14.010149 0.000000 0.000000 0.000000 7.125000 0.000000 0.000000 9.451914 15.712108 6.632091
-8.908221 17.542262 -32.315164 2.015434 -5.803553 -1.989563 0.000000 0.000000 0.000000 -24.932090 -7.182275 -14.327969 1.735531 8.291929 23.604353 0.032537 -3.925693 -3.954527 0.014177 0.762289 2.095054 0.000000 0.000000 0.000000 19.976434 4.171331 -9.169132 -11.793590 -18.300162 65.331010 -0.621289 -6.724701 14.103846 -1.002024 -6.369936 17.861652 -0.889953 -4.016227 3.120128 3.047917 -5.306944 -2.075503 3.956724 -2.585028 -3.516630 -16.989179 4.096242 1.803197 6.379214 5.074125 15.474394 4.864430 1.862020 3.774474 0.000000 0.000000 0.000000 -8.197165 12.453111 1.301966 14.118774 -22.904239 2.874162 17.328405 17.627413 -22.969857 0.000000 0.000000 0.000000 -7.125000 0.000000 0.000000 -12.255639 53.503279 2.599651 0.000000 0.000000 0.000000 -7.954133 6.823864 25.671152 -16.097966 -25.652681 -3.688689 -13.543637 2.153818 -14.496499 0.000000 0.000000 0.000000 7.125000 0.000000 0.000000 9.483211 15.224400 6.754451
